<svg width="17" height="17" viewBox="0 0 17 17" fill="none" xmlns="http://www.w3.org/2000/svg">
<path d="M16.4039 14.1352L13.8109 1.80712C13.769 1.60557 13.6876 1.4143 13.5714 1.24431C13.4553 1.07432 13.3067 0.928955 13.1342 0.816571C12.9617 0.704188 12.7687 0.627001 12.5663 0.589447C12.3639 0.551894 12.156 0.554713 11.9547 0.597743L8.29766 1.38368C7.96144 1.45658 7.65907 1.63938 7.43828 1.90321C7.29667 1.68364 7.10225 1.50308 6.87282 1.37806C6.6434 1.25304 6.38628 1.18755 6.125 1.18759H2.375C1.9606 1.18759 1.56317 1.35221 1.27015 1.64523C0.97712 1.93826 0.8125 2.33569 0.8125 2.75009V15.2501C0.8125 15.6645 0.97712 16.0619 1.27015 16.3549C1.56317 16.648 1.9606 16.8126 2.375 16.8126H6.125C6.5394 16.8126 6.93683 16.648 7.22986 16.3549C7.52288 16.0619 7.6875 15.6645 7.6875 15.2501V6.05087L9.68906 15.5681C9.76202 15.9191 9.95345 16.2343 10.2313 16.4609C10.5091 16.6875 10.8563 16.8117 11.2148 16.8126C11.3259 16.8125 11.4367 16.8007 11.5453 16.7774L15.2023 15.9915C15.6069 15.9031 15.9602 15.6584 16.1852 15.3107C16.4103 14.9631 16.4889 14.5406 16.4039 14.1352ZM9.57734 5.92587L12.6242 5.27118L12.8219 6.20868L9.775 6.86337L9.57734 5.92587ZM10.1602 8.69931L13.207 8.04462L13.9227 11.4493L10.8758 12.104L10.1602 8.69931ZM12.0398 2.49696L12.2375 3.43446L9.19063 4.08915L8.99297 3.15165L12.0398 2.49696ZM2.6875 5.87509H5.8125V12.1251H2.6875V5.87509ZM5.8125 3.06259V4.00009H2.6875V3.06259H5.8125ZM2.6875 14.9376V14.0001H5.8125V14.9376H2.6875ZM11.4602 14.8782L11.2625 13.9407L14.3094 13.286L14.507 14.2235L11.4602 14.8782Z" fill="#63687D"/>
</svg>
