<svg width="48" height="37" viewBox="0 0 48 37" fill="none" xmlns="http://www.w3.org/2000/svg">
<path d="M12.2554 19.5436C15.4417 19.5436 17.8509 20.2999 19.4829 21.8127C21.1149 23.2866 21.9309 25.2648 21.9309 27.7472C21.9309 30.4624 20.94 32.6733 18.9583 34.3799C17.0154 36.0865 14.6646 36.9399 11.9057 36.9399C8.68058 36.9399 6.01885 35.8345 3.92056 33.6236C1.86114 31.3739 0.831421 28.0187 0.831421 23.5581C0.831421 19.369 1.58914 15.723 3.10456 12.62C4.61999 9.47813 6.62112 6.91813 9.10799 4.93995C11.6337 2.96176 14.3731 1.64298 17.3263 0.983583C18.4143 0.71207 19.2691 0.692674 19.8909 0.925397C20.5126 1.15813 20.9011 1.60419 21.0566 2.26358C21.212 2.8454 21.076 3.40784 20.6486 3.95086C20.26 4.49388 19.4634 4.97871 18.2589 5.4054C16.0051 6.25875 14.1011 7.34479 12.5469 8.66359C10.9926 9.98239 9.82684 11.3981 9.04971 12.9109C8.27258 14.3848 7.88399 15.8006 7.88399 17.1581C7.88399 17.8951 8.07827 18.4769 8.46685 18.9036C8.89427 19.3302 9.63256 19.5436 10.6817 19.5436H12.2554ZM38.2509 19.5436C41.3983 19.5436 43.788 20.2999 45.42 21.8127C47.052 23.2866 47.868 25.2648 47.868 27.7472C47.868 30.4236 46.8964 32.6345 44.9537 34.3799C43.011 36.0865 40.6406 36.9399 37.8428 36.9399C34.6177 36.9399 31.956 35.8345 29.8577 33.6236C27.7983 31.3739 26.7686 28.0187 26.7686 23.5581C26.7686 19.369 27.5263 15.723 29.0417 12.62C30.5571 9.47813 32.5777 6.91813 35.1034 4.93995C37.629 2.96176 40.3491 1.64298 43.2634 0.983583C44.3902 0.71207 45.2644 0.692674 45.8863 0.925397C46.5081 1.15813 46.8964 1.60419 47.052 2.26358C47.1686 2.8454 47.0327 3.40784 46.644 3.95086C46.2553 4.45511 45.459 4.93995 44.2543 5.4054C41.9618 6.25875 40.0384 7.34479 38.484 8.66359C36.9296 9.98239 35.7639 11.3981 34.9869 12.9109C34.2486 14.3848 33.8794 15.8006 33.8794 17.1581C33.8794 17.8951 34.0737 18.4769 34.4623 18.9036C34.8509 19.3302 35.5697 19.5436 36.6189 19.5436H38.2509Z" fill="#C05746"/>
</svg>
